solid OpenSCAD_Model
  facet normal 1 0 0
    outer loop
      vertex 2.9 2.15 4.8
      vertex 2.9 2 4.4
      vertex 2.9 2.15 3.8147e-07
    endloop
  endfacet
  facet normal 1 0 0
    outer loop
      vertex 2.9 2.15 4.8
      vertex 2.9 -2 4.4
      vertex 2.9 2 4.4
    endloop
  endfacet
  facet normal 1 0 0
    outer loop
      vertex 2.9 -2 4.4
      vertex 2.9 -2.15 4.8
      vertex 2.9 -2 0.4
    endloop
  endfacet
  facet normal 1 -0 0
    outer loop
      vertex 2.9 -2.15 4.8
      vertex 2.9 -2 4.4
      vertex 2.9 2.15 4.8
    endloop
  endfacet
  facet normal 1 -0 0
    outer loop
      vertex 2.9 2 0.4
      vertex 2.9 2.15 3.8147e-07
      vertex 2.9 2 4.4
    endloop
  endfacet
  facet normal 1 -0 0
    outer loop
      vertex 2.9 -2 0.4
      vertex 2.9 2.15 3.8147e-07
      vertex 2.9 2 0.4
    endloop
  endfacet
  facet normal 1 0 0
    outer loop
      vertex 2.9 -2 0.4
      vertex 2.9 -2.15 3.8147e-07
      vertex 2.9 2.15 3.8147e-07
    endloop
  endfacet
  facet normal 1 0 0
    outer loop
      vertex 2.9 -2.15 3.8147e-07
      vertex 2.9 -2 0.4
      vertex 2.9 -2.15 4.8
    endloop
  endfacet
  facet normal -0 0 1
    outer loop
      vertex -2.9 2.15 4.8
      vertex 2.9 -2.15 4.8
      vertex 2.9 2.15 4.8
    endloop
  endfacet
  facet normal 0 0 1
    outer loop
      vertex 2.9 -2.15 4.8
      vertex -2.9 2.15 4.8
      vertex -2.9 -2.15 4.8
    endloop
  endfacet
  facet normal 0 0 -1
    outer loop
      vertex -2.9 -2.15 3.8147e-07
      vertex 2.9 2.15 3.8147e-07
      vertex 2.9 -2.15 3.8147e-07
    endloop
  endfacet
  facet normal -0 0 -1
    outer loop
      vertex 2.9 2.15 3.8147e-07
      vertex -2.9 -2.15 3.8147e-07
      vertex -2.9 2.15 3.8147e-07
    endloop
  endfacet
  facet normal -1 0 0
    outer loop
      vertex -2.9 -2.15 3.8147e-07
      vertex -2.9 2.15 4.8
      vertex -2.9 2.15 3.8147e-07
    endloop
  endfacet
  facet normal -1 -0 0
    outer loop
      vertex -2.9 2.15 4.8
      vertex -2.9 -2.15 3.8147e-07
      vertex -2.9 -2.15 4.8
    endloop
  endfacet
  facet normal 0 1 -0
    outer loop
      vertex 2.9 2.15 3.8147e-07
      vertex -2.9 2.15 4.8
      vertex 2.9 2.15 4.8
    endloop
  endfacet
  facet normal 0 1 0
    outer loop
      vertex -2.9 2.15 4.8
      vertex 2.9 2.15 3.8147e-07
      vertex -2.9 2.15 3.8147e-07
    endloop
  endfacet
  facet normal 0 -1 0
    outer loop
      vertex -2.9 -2.15 3.8147e-07
      vertex 2.9 -2.15 4.8
      vertex -2.9 -2.15 4.8
    endloop
  endfacet
  facet normal 0 -1 -0
    outer loop
      vertex 2.9 -2.15 4.8
      vertex -2.9 -2.15 3.8147e-07
      vertex 2.9 -2.15 3.8147e-07
    endloop
  endfacet
  facet normal 1 -0 0
    outer loop
      vertex 8.4 -2 4.4
      vertex 8.4 2 0.4
      vertex 8.4 2 4.4
    endloop
  endfacet
  facet normal 1 0 0
    outer loop
      vertex 8.4 2 0.4
      vertex 8.4 -2 4.4
      vertex 8.4 -2 0.4
    endloop
  endfacet
  facet normal -0 0 1
    outer loop
      vertex 2.9 2 4.4
      vertex 8.4 -2 4.4
      vertex 8.4 2 4.4
    endloop
  endfacet
  facet normal 0 0 1
    outer loop
      vertex 8.4 -2 4.4
      vertex 2.9 2 4.4
      vertex 2.9 -2 4.4
    endloop
  endfacet
  facet normal 0 0 -1
    outer loop
      vertex 2.9 -2 0.4
      vertex 8.4 2 0.4
      vertex 8.4 -2 0.4
    endloop
  endfacet
  facet normal -0 0 -1
    outer loop
      vertex 8.4 2 0.4
      vertex 2.9 -2 0.4
      vertex 2.9 2 0.4
    endloop
  endfacet
  facet normal 0 1 -0
    outer loop
      vertex 8.4 2 0.4
      vertex 2.9 2 4.4
      vertex 8.4 2 4.4
    endloop
  endfacet
  facet normal 0 1 0
    outer loop
      vertex 2.9 2 4.4
      vertex 8.4 2 0.4
      vertex 2.9 2 0.4
    endloop
  endfacet
  facet normal 0 -1 0
    outer loop
      vertex 2.9 -2 0.4
      vertex 8.4 -2 4.4
      vertex 2.9 -2 4.4
    endloop
  endfacet
  facet normal 0 -1 -0
    outer loop
      vertex 8.4 -2 4.4
      vertex 2.9 -2 0.4
      vertex 8.4 -2 0.4
    endloop
  endfacet
  facet normal 1 0 0
    outer loop
      vertex 2.9 12.15 4.8
      vertex 2.9 12 4.4
      vertex 2.9 12.15 3.8147e-07
    endloop
  endfacet
  facet normal 1 0 0
    outer loop
      vertex 2.9 12.15 4.8
      vertex 2.9 8 4.4
      vertex 2.9 12 4.4
    endloop
  endfacet
  facet normal 1 0 0
    outer loop
      vertex 2.9 8 4.4
      vertex 2.9 7.85 4.8
      vertex 2.9 8 0.4
    endloop
  endfacet
  facet normal 1 -0 0
    outer loop
      vertex 2.9 7.85 4.8
      vertex 2.9 8 4.4
      vertex 2.9 12.15 4.8
    endloop
  endfacet
  facet normal 1 -0 0
    outer loop
      vertex 2.9 12 0.4
      vertex 2.9 12.15 3.8147e-07
      vertex 2.9 12 4.4
    endloop
  endfacet
  facet normal 1 -0 0
    outer loop
      vertex 2.9 8 0.4
      vertex 2.9 12.15 3.8147e-07
      vertex 2.9 12 0.4
    endloop
  endfacet
  facet normal 1 0 0
    outer loop
      vertex 2.9 8 0.4
      vertex 2.9 7.85 3.8147e-07
      vertex 2.9 12.15 3.8147e-07
    endloop
  endfacet
  facet normal 1 0 0
    outer loop
      vertex 2.9 7.85 3.8147e-07
      vertex 2.9 8 0.4
      vertex 2.9 7.85 4.8
    endloop
  endfacet
  facet normal -0 0 1
    outer loop
      vertex -2.9 12.15 4.8
      vertex 2.9 7.85 4.8
      vertex 2.9 12.15 4.8
    endloop
  endfacet
  facet normal 0 0 1
    outer loop
      vertex 2.9 7.85 4.8
      vertex -2.9 12.15 4.8
      vertex -2.9 7.85 4.8
    endloop
  endfacet
  facet normal 0 0 -1
    outer loop
      vertex -2.9 7.85 3.8147e-07
      vertex 2.9 12.15 3.8147e-07
      vertex 2.9 7.85 3.8147e-07
    endloop
  endfacet
  facet normal -0 0 -1
    outer loop
      vertex 2.9 12.15 3.8147e-07
      vertex -2.9 7.85 3.8147e-07
      vertex -2.9 12.15 3.8147e-07
    endloop
  endfacet
  facet normal -1 0 0
    outer loop
      vertex -2.9 7.85 3.8147e-07
      vertex -2.9 12.15 4.8
      vertex -2.9 12.15 3.8147e-07
    endloop
  endfacet
  facet normal -1 -0 0
    outer loop
      vertex -2.9 12.15 4.8
      vertex -2.9 7.85 3.8147e-07
      vertex -2.9 7.85 4.8
    endloop
  endfacet
  facet normal 0 1 -0
    outer loop
      vertex 2.9 12.15 3.8147e-07
      vertex -2.9 12.15 4.8
      vertex 2.9 12.15 4.8
    endloop
  endfacet
  facet normal 0 1 0
    outer loop
      vertex -2.9 12.15 4.8
      vertex 2.9 12.15 3.8147e-07
      vertex -2.9 12.15 3.8147e-07
    endloop
  endfacet
  facet normal 0 -1 0
    outer loop
      vertex -2.9 7.85 3.8147e-07
      vertex 2.9 7.85 4.8
      vertex -2.9 7.85 4.8
    endloop
  endfacet
  facet normal 0 -1 -0
    outer loop
      vertex 2.9 7.85 4.8
      vertex -2.9 7.85 3.8147e-07
      vertex 2.9 7.85 3.8147e-07
    endloop
  endfacet
  facet normal 1 -0 0
    outer loop
      vertex 8.4 8 4.4
      vertex 8.4 12 0.4
      vertex 8.4 12 4.4
    endloop
  endfacet
  facet normal 1 0 0
    outer loop
      vertex 8.4 12 0.4
      vertex 8.4 8 4.4
      vertex 8.4 8 0.4
    endloop
  endfacet
  facet normal -0 0 1
    outer loop
      vertex 2.9 12 4.4
      vertex 8.4 8 4.4
      vertex 8.4 12 4.4
    endloop
  endfacet
  facet normal 0 0 1
    outer loop
      vertex 8.4 8 4.4
      vertex 2.9 12 4.4
      vertex 2.9 8 4.4
    endloop
  endfacet
  facet normal 0 0 -1
    outer loop
      vertex 2.9 8 0.4
      vertex 8.4 12 0.4
      vertex 8.4 8 0.4
    endloop
  endfacet
  facet normal -0 0 -1
    outer loop
      vertex 8.4 12 0.4
      vertex 2.9 8 0.4
      vertex 2.9 12 0.4
    endloop
  endfacet
  facet normal 0 1 -0
    outer loop
      vertex 8.4 12 0.4
      vertex 2.9 12 4.4
      vertex 8.4 12 4.4
    endloop
  endfacet
  facet normal 0 1 0
    outer loop
      vertex 2.9 12 4.4
      vertex 8.4 12 0.4
      vertex 2.9 12 0.4
    endloop
  endfacet
  facet normal 0 -1 0
    outer loop
      vertex 2.9 8 0.4
      vertex 8.4 8 4.4
      vertex 2.9 8 4.4
    endloop
  endfacet
  facet normal 0 -1 -0
    outer loop
      vertex 8.4 8 4.4
      vertex 2.9 8 0.4
      vertex 8.4 8 0.4
    endloop
  endfacet
  facet normal 1 0 0
    outer loop
      vertex 2.9 22.15 4.8
      vertex 2.9 22 4.4
      vertex 2.9 22.15 3.8147e-07
    endloop
  endfacet
  facet normal 1 0 0
    outer loop
      vertex 2.9 22.15 4.8
      vertex 2.9 18 4.4
      vertex 2.9 22 4.4
    endloop
  endfacet
  facet normal 1 0 0
    outer loop
      vertex 2.9 18 4.4
      vertex 2.9 17.85 4.8
      vertex 2.9 18 0.4
    endloop
  endfacet
  facet normal 1 -0 0
    outer loop
      vertex 2.9 17.85 4.8
      vertex 2.9 18 4.4
      vertex 2.9 22.15 4.8
    endloop
  endfacet
  facet normal 1 -0 0
    outer loop
      vertex 2.9 22 0.4
      vertex 2.9 22.15 3.8147e-07
      vertex 2.9 22 4.4
    endloop
  endfacet
  facet normal 1 -0 0
    outer loop
      vertex 2.9 18 0.4
      vertex 2.9 22.15 3.8147e-07
      vertex 2.9 22 0.4
    endloop
  endfacet
  facet normal 1 0 0
    outer loop
      vertex 2.9 18 0.4
      vertex 2.9 17.85 3.8147e-07
      vertex 2.9 22.15 3.8147e-07
    endloop
  endfacet
  facet normal 1 0 0
    outer loop
      vertex 2.9 17.85 3.8147e-07
      vertex 2.9 18 0.4
      vertex 2.9 17.85 4.8
    endloop
  endfacet
  facet normal -0 0 1
    outer loop
      vertex -2.9 22.15 4.8
      vertex 2.9 17.85 4.8
      vertex 2.9 22.15 4.8
    endloop
  endfacet
  facet normal 0 0 1
    outer loop
      vertex 2.9 17.85 4.8
      vertex -2.9 22.15 4.8
      vertex -2.9 17.85 4.8
    endloop
  endfacet
  facet normal 0 0 -1
    outer loop
      vertex -2.9 17.85 3.8147e-07
      vertex 2.9 22.15 3.8147e-07
      vertex 2.9 17.85 3.8147e-07
    endloop
  endfacet
  facet normal -0 0 -1
    outer loop
      vertex 2.9 22.15 3.8147e-07
      vertex -2.9 17.85 3.8147e-07
      vertex -2.9 22.15 3.8147e-07
    endloop
  endfacet
  facet normal -1 0 0
    outer loop
      vertex -2.9 17.85 3.8147e-07
      vertex -2.9 22.15 4.8
      vertex -2.9 22.15 3.8147e-07
    endloop
  endfacet
  facet normal -1 -0 0
    outer loop
      vertex -2.9 22.15 4.8
      vertex -2.9 17.85 3.8147e-07
      vertex -2.9 17.85 4.8
    endloop
  endfacet
  facet normal 0 1 -0
    outer loop
      vertex 2.9 22.15 3.8147e-07
      vertex -2.9 22.15 4.8
      vertex 2.9 22.15 4.8
    endloop
  endfacet
  facet normal 0 1 0
    outer loop
      vertex -2.9 22.15 4.8
      vertex 2.9 22.15 3.8147e-07
      vertex -2.9 22.15 3.8147e-07
    endloop
  endfacet
  facet normal 0 -1 0
    outer loop
      vertex -2.9 17.85 3.8147e-07
      vertex 2.9 17.85 4.8
      vertex -2.9 17.85 4.8
    endloop
  endfacet
  facet normal 0 -1 -0
    outer loop
      vertex 2.9 17.85 4.8
      vertex -2.9 17.85 3.8147e-07
      vertex 2.9 17.85 3.8147e-07
    endloop
  endfacet
  facet normal 1 -0 0
    outer loop
      vertex 8.4 18 4.4
      vertex 8.4 22 0.4
      vertex 8.4 22 4.4
    endloop
  endfacet
  facet normal 1 0 0
    outer loop
      vertex 8.4 22 0.4
      vertex 8.4 18 4.4
      vertex 8.4 18 0.4
    endloop
  endfacet
  facet normal -0 0 1
    outer loop
      vertex 2.9 22 4.4
      vertex 8.4 18 4.4
      vertex 8.4 22 4.4
    endloop
  endfacet
  facet normal 0 0 1
    outer loop
      vertex 8.4 18 4.4
      vertex 2.9 22 4.4
      vertex 2.9 18 4.4
    endloop
  endfacet
  facet normal 0 0 -1
    outer loop
      vertex 2.9 18 0.4
      vertex 8.4 22 0.4
      vertex 8.4 18 0.4
    endloop
  endfacet
  facet normal -0 0 -1
    outer loop
      vertex 8.4 22 0.4
      vertex 2.9 18 0.4
      vertex 2.9 22 0.4
    endloop
  endfacet
  facet normal 0 1 -0
    outer loop
      vertex 8.4 22 0.4
      vertex 2.9 22 4.4
      vertex 8.4 22 4.4
    endloop
  endfacet
  facet normal 0 1 0
    outer loop
      vertex 2.9 22 4.4
      vertex 8.4 22 0.4
      vertex 2.9 22 0.4
    endloop
  endfacet
  facet normal 0 -1 0
    outer loop
      vertex 2.9 18 0.4
      vertex 8.4 18 4.4
      vertex 2.9 18 4.4
    endloop
  endfacet
  facet normal 0 -1 -0
    outer loop
      vertex 8.4 18 4.4
      vertex 2.9 18 0.4
      vertex 8.4 18 0.4
    endloop
  endfacet
  facet normal 1 0 0
    outer loop
      vertex 2.9 32.15 4.8
      vertex 2.9 32 4.4
      vertex 2.9 32.15 3.8147e-07
    endloop
  endfacet
  facet normal 1 0 0
    outer loop
      vertex 2.9 32.15 4.8
      vertex 2.9 28 4.4
      vertex 2.9 32 4.4
    endloop
  endfacet
  facet normal 1 0 0
    outer loop
      vertex 2.9 28 4.4
      vertex 2.9 27.85 4.8
      vertex 2.9 28 0.4
    endloop
  endfacet
  facet normal 1 -0 0
    outer loop
      vertex 2.9 27.85 4.8
      vertex 2.9 28 4.4
      vertex 2.9 32.15 4.8
    endloop
  endfacet
  facet normal 1 -0 0
    outer loop
      vertex 2.9 32 0.4
      vertex 2.9 32.15 3.8147e-07
      vertex 2.9 32 4.4
    endloop
  endfacet
  facet normal 1 -0 0
    outer loop
      vertex 2.9 28 0.4
      vertex 2.9 32.15 3.8147e-07
      vertex 2.9 32 0.4
    endloop
  endfacet
  facet normal 1 0 0
    outer loop
      vertex 2.9 28 0.4
      vertex 2.9 27.85 3.8147e-07
      vertex 2.9 32.15 3.8147e-07
    endloop
  endfacet
  facet normal 1 0 0
    outer loop
      vertex 2.9 27.85 3.8147e-07
      vertex 2.9 28 0.4
      vertex 2.9 27.85 4.8
    endloop
  endfacet
  facet normal -0 0 1
    outer loop
      vertex -2.9 32.15 4.8
      vertex 2.9 27.85 4.8
      vertex 2.9 32.15 4.8
    endloop
  endfacet
  facet normal 0 0 1
    outer loop
      vertex 2.9 27.85 4.8
      vertex -2.9 32.15 4.8
      vertex -2.9 27.85 4.8
    endloop
  endfacet
  facet normal 0 0 -1
    outer loop
      vertex -2.9 27.85 3.8147e-07
      vertex 2.9 32.15 3.8147e-07
      vertex 2.9 27.85 3.8147e-07
    endloop
  endfacet
  facet normal -0 0 -1
    outer loop
      vertex 2.9 32.15 3.8147e-07
      vertex -2.9 27.85 3.8147e-07
      vertex -2.9 32.15 3.8147e-07
    endloop
  endfacet
  facet normal -1 0 0
    outer loop
      vertex -2.9 27.85 3.8147e-07
      vertex -2.9 32.15 4.8
      vertex -2.9 32.15 3.8147e-07
    endloop
  endfacet
  facet normal -1 -0 0
    outer loop
      vertex -2.9 32.15 4.8
      vertex -2.9 27.85 3.8147e-07
      vertex -2.9 27.85 4.8
    endloop
  endfacet
  facet normal 0 1 -0
    outer loop
      vertex 2.9 32.15 3.8147e-07
      vertex -2.9 32.15 4.8
      vertex 2.9 32.15 4.8
    endloop
  endfacet
  facet normal 0 1 0
    outer loop
      vertex -2.9 32.15 4.8
      vertex 2.9 32.15 3.8147e-07
      vertex -2.9 32.15 3.8147e-07
    endloop
  endfacet
  facet normal 0 -1 0
    outer loop
      vertex -2.9 27.85 3.8147e-07
      vertex 2.9 27.85 4.8
      vertex -2.9 27.85 4.8
    endloop
  endfacet
  facet normal 0 -1 -0
    outer loop
      vertex 2.9 27.85 4.8
      vertex -2.9 27.85 3.8147e-07
      vertex 2.9 27.85 3.8147e-07
    endloop
  endfacet
  facet normal 1 -0 0
    outer loop
      vertex 8.4 28 4.4
      vertex 8.4 32 0.4
      vertex 8.4 32 4.4
    endloop
  endfacet
  facet normal 1 0 0
    outer loop
      vertex 8.4 32 0.4
      vertex 8.4 28 4.4
      vertex 8.4 28 0.4
    endloop
  endfacet
  facet normal -0 0 1
    outer loop
      vertex 2.9 32 4.4
      vertex 8.4 28 4.4
      vertex 8.4 32 4.4
    endloop
  endfacet
  facet normal 0 0 1
    outer loop
      vertex 8.4 28 4.4
      vertex 2.9 32 4.4
      vertex 2.9 28 4.4
    endloop
  endfacet
  facet normal 0 0 -1
    outer loop
      vertex 2.9 28 0.4
      vertex 8.4 32 0.4
      vertex 8.4 28 0.4
    endloop
  endfacet
  facet normal -0 0 -1
    outer loop
      vertex 8.4 32 0.4
      vertex 2.9 28 0.4
      vertex 2.9 32 0.4
    endloop
  endfacet
  facet normal 0 1 -0
    outer loop
      vertex 8.4 32 0.4
      vertex 2.9 32 4.4
      vertex 8.4 32 4.4
    endloop
  endfacet
  facet normal 0 1 0
    outer loop
      vertex 2.9 32 4.4
      vertex 8.4 32 0.4
      vertex 2.9 32 0.4
    endloop
  endfacet
  facet normal 0 -1 0
    outer loop
      vertex 2.9 28 0.4
      vertex 8.4 28 4.4
      vertex 2.9 28 4.4
    endloop
  endfacet
  facet normal 0 -1 -0
    outer loop
      vertex 8.4 28 4.4
      vertex 2.9 28 0.4
      vertex 8.4 28 0.4
    endloop
  endfacet
  facet normal 1 0 0
    outer loop
      vertex 2.9 42.15 4.8
      vertex 2.9 42 4.4
      vertex 2.9 42.15 3.8147e-07
    endloop
  endfacet
  facet normal 1 0 0
    outer loop
      vertex 2.9 42.15 4.8
      vertex 2.9 38 4.4
      vertex 2.9 42 4.4
    endloop
  endfacet
  facet normal 1 0 0
    outer loop
      vertex 2.9 38 4.4
      vertex 2.9 37.85 4.8
      vertex 2.9 38 0.4
    endloop
  endfacet
  facet normal 1 -0 0
    outer loop
      vertex 2.9 37.85 4.8
      vertex 2.9 38 4.4
      vertex 2.9 42.15 4.8
    endloop
  endfacet
  facet normal 1 -0 0
    outer loop
      vertex 2.9 42 0.4
      vertex 2.9 42.15 3.8147e-07
      vertex 2.9 42 4.4
    endloop
  endfacet
  facet normal 1 -0 0
    outer loop
      vertex 2.9 38 0.4
      vertex 2.9 42.15 3.8147e-07
      vertex 2.9 42 0.4
    endloop
  endfacet
  facet normal 1 0 0
    outer loop
      vertex 2.9 38 0.4
      vertex 2.9 37.85 3.8147e-07
      vertex 2.9 42.15 3.8147e-07
    endloop
  endfacet
  facet normal 1 0 0
    outer loop
      vertex 2.9 37.85 3.8147e-07
      vertex 2.9 38 0.4
      vertex 2.9 37.85 4.8
    endloop
  endfacet
  facet normal -0 0 1
    outer loop
      vertex -2.9 42.15 4.8
      vertex 2.9 37.85 4.8
      vertex 2.9 42.15 4.8
    endloop
  endfacet
  facet normal 0 0 1
    outer loop
      vertex 2.9 37.85 4.8
      vertex -2.9 42.15 4.8
      vertex -2.9 37.85 4.8
    endloop
  endfacet
  facet normal 0 0 -1
    outer loop
      vertex -2.9 37.85 3.8147e-07
      vertex 2.9 42.15 3.8147e-07
      vertex 2.9 37.85 3.8147e-07
    endloop
  endfacet
  facet normal -0 0 -1
    outer loop
      vertex 2.9 42.15 3.8147e-07
      vertex -2.9 37.85 3.8147e-07
      vertex -2.9 42.15 3.8147e-07
    endloop
  endfacet
  facet normal -1 0 0
    outer loop
      vertex -2.9 37.85 3.8147e-07
      vertex -2.9 42.15 4.8
      vertex -2.9 42.15 3.8147e-07
    endloop
  endfacet
  facet normal -1 -0 0
    outer loop
      vertex -2.9 42.15 4.8
      vertex -2.9 37.85 3.8147e-07
      vertex -2.9 37.85 4.8
    endloop
  endfacet
  facet normal 0 1 -0
    outer loop
      vertex 2.9 42.15 3.8147e-07
      vertex -2.9 42.15 4.8
      vertex 2.9 42.15 4.8
    endloop
  endfacet
  facet normal 0 1 0
    outer loop
      vertex -2.9 42.15 4.8
      vertex 2.9 42.15 3.8147e-07
      vertex -2.9 42.15 3.8147e-07
    endloop
  endfacet
  facet normal 0 -1 0
    outer loop
      vertex -2.9 37.85 3.8147e-07
      vertex 2.9 37.85 4.8
      vertex -2.9 37.85 4.8
    endloop
  endfacet
  facet normal 0 -1 -0
    outer loop
      vertex 2.9 37.85 4.8
      vertex -2.9 37.85 3.8147e-07
      vertex 2.9 37.85 3.8147e-07
    endloop
  endfacet
  facet normal 1 -0 0
    outer loop
      vertex 8.4 38 4.4
      vertex 8.4 42 0.4
      vertex 8.4 42 4.4
    endloop
  endfacet
  facet normal 1 0 0
    outer loop
      vertex 8.4 42 0.4
      vertex 8.4 38 4.4
      vertex 8.4 38 0.4
    endloop
  endfacet
  facet normal -0 0 1
    outer loop
      vertex 2.9 42 4.4
      vertex 8.4 38 4.4
      vertex 8.4 42 4.4
    endloop
  endfacet
  facet normal 0 0 1
    outer loop
      vertex 8.4 38 4.4
      vertex 2.9 42 4.4
      vertex 2.9 38 4.4
    endloop
  endfacet
  facet normal 0 0 -1
    outer loop
      vertex 2.9 38 0.4
      vertex 8.4 42 0.4
      vertex 8.4 38 0.4
    endloop
  endfacet
  facet normal -0 0 -1
    outer loop
      vertex 8.4 42 0.4
      vertex 2.9 38 0.4
      vertex 2.9 42 0.4
    endloop
  endfacet
  facet normal 0 1 -0
    outer loop
      vertex 8.4 42 0.4
      vertex 2.9 42 4.4
      vertex 8.4 42 4.4
    endloop
  endfacet
  facet normal 0 1 0
    outer loop
      vertex 2.9 42 4.4
      vertex 8.4 42 0.4
      vertex 2.9 42 0.4
    endloop
  endfacet
  facet normal 0 -1 0
    outer loop
      vertex 2.9 38 0.4
      vertex 8.4 38 4.4
      vertex 2.9 38 4.4
    endloop
  endfacet
  facet normal 0 -1 -0
    outer loop
      vertex 8.4 38 4.4
      vertex 2.9 38 0.4
      vertex 8.4 38 0.4
    endloop
  endfacet
  facet normal 1 0 0
    outer loop
      vertex 2.9 52.15 4.8
      vertex 2.9 52 4.4
      vertex 2.9 52.15 3.8147e-07
    endloop
  endfacet
  facet normal 1 0 0
    outer loop
      vertex 2.9 52.15 4.8
      vertex 2.9 48 4.4
      vertex 2.9 52 4.4
    endloop
  endfacet
  facet normal 1 0 0
    outer loop
      vertex 2.9 48 4.4
      vertex 2.9 47.85 4.8
      vertex 2.9 48 0.4
    endloop
  endfacet
  facet normal 1 -0 0
    outer loop
      vertex 2.9 47.85 4.8
      vertex 2.9 48 4.4
      vertex 2.9 52.15 4.8
    endloop
  endfacet
  facet normal 1 -0 0
    outer loop
      vertex 2.9 52 0.4
      vertex 2.9 52.15 3.8147e-07
      vertex 2.9 52 4.4
    endloop
  endfacet
  facet normal 1 -0 0
    outer loop
      vertex 2.9 48 0.4
      vertex 2.9 52.15 3.8147e-07
      vertex 2.9 52 0.4
    endloop
  endfacet
  facet normal 1 0 0
    outer loop
      vertex 2.9 48 0.4
      vertex 2.9 47.85 3.8147e-07
      vertex 2.9 52.15 3.8147e-07
    endloop
  endfacet
  facet normal 1 0 0
    outer loop
      vertex 2.9 47.85 3.8147e-07
      vertex 2.9 48 0.4
      vertex 2.9 47.85 4.8
    endloop
  endfacet
  facet normal -0 0 1
    outer loop
      vertex -2.9 52.15 4.8
      vertex 2.9 47.85 4.8
      vertex 2.9 52.15 4.8
    endloop
  endfacet
  facet normal 0 0 1
    outer loop
      vertex 2.9 47.85 4.8
      vertex -2.9 52.15 4.8
      vertex -2.9 47.85 4.8
    endloop
  endfacet
  facet normal 0 0 -1
    outer loop
      vertex -2.9 47.85 3.8147e-07
      vertex 2.9 52.15 3.8147e-07
      vertex 2.9 47.85 3.8147e-07
    endloop
  endfacet
  facet normal -0 0 -1
    outer loop
      vertex 2.9 52.15 3.8147e-07
      vertex -2.9 47.85 3.8147e-07
      vertex -2.9 52.15 3.8147e-07
    endloop
  endfacet
  facet normal -1 0 0
    outer loop
      vertex -2.9 47.85 3.8147e-07
      vertex -2.9 52.15 4.8
      vertex -2.9 52.15 3.8147e-07
    endloop
  endfacet
  facet normal -1 -0 0
    outer loop
      vertex -2.9 52.15 4.8
      vertex -2.9 47.85 3.8147e-07
      vertex -2.9 47.85 4.8
    endloop
  endfacet
  facet normal 0 1 -0
    outer loop
      vertex 2.9 52.15 3.8147e-07
      vertex -2.9 52.15 4.8
      vertex 2.9 52.15 4.8
    endloop
  endfacet
  facet normal 0 1 0
    outer loop
      vertex -2.9 52.15 4.8
      vertex 2.9 52.15 3.8147e-07
      vertex -2.9 52.15 3.8147e-07
    endloop
  endfacet
  facet normal 0 -1 0
    outer loop
      vertex -2.9 47.85 3.8147e-07
      vertex 2.9 47.85 4.8
      vertex -2.9 47.85 4.8
    endloop
  endfacet
  facet normal 0 -1 -0
    outer loop
      vertex 2.9 47.85 4.8
      vertex -2.9 47.85 3.8147e-07
      vertex 2.9 47.85 3.8147e-07
    endloop
  endfacet
  facet normal 1 -0 0
    outer loop
      vertex 8.4 48 4.4
      vertex 8.4 52 0.4
      vertex 8.4 52 4.4
    endloop
  endfacet
  facet normal 1 0 0
    outer loop
      vertex 8.4 52 0.4
      vertex 8.4 48 4.4
      vertex 8.4 48 0.4
    endloop
  endfacet
  facet normal -0 0 1
    outer loop
      vertex 2.9 52 4.4
      vertex 8.4 48 4.4
      vertex 8.4 52 4.4
    endloop
  endfacet
  facet normal 0 0 1
    outer loop
      vertex 8.4 48 4.4
      vertex 2.9 52 4.4
      vertex 2.9 48 4.4
    endloop
  endfacet
  facet normal 0 0 -1
    outer loop
      vertex 2.9 48 0.4
      vertex 8.4 52 0.4
      vertex 8.4 48 0.4
    endloop
  endfacet
  facet normal -0 0 -1
    outer loop
      vertex 8.4 52 0.4
      vertex 2.9 48 0.4
      vertex 2.9 52 0.4
    endloop
  endfacet
  facet normal 0 1 -0
    outer loop
      vertex 8.4 52 0.4
      vertex 2.9 52 4.4
      vertex 8.4 52 4.4
    endloop
  endfacet
  facet normal 0 1 0
    outer loop
      vertex 2.9 52 4.4
      vertex 8.4 52 0.4
      vertex 2.9 52 0.4
    endloop
  endfacet
  facet normal 0 -1 0
    outer loop
      vertex 2.9 48 0.4
      vertex 8.4 48 4.4
      vertex 2.9 48 4.4
    endloop
  endfacet
  facet normal 0 -1 -0
    outer loop
      vertex 8.4 48 4.4
      vertex 2.9 48 0.4
      vertex 8.4 48 0.4
    endloop
  endfacet
endsolid OpenSCAD_Model
